<svg width="80" height="30" viewBox="0 0 80 30" fill="none" xmlns="http://www.w3.org/2000/svg">
<path d="M2.46154 25C1.78462 25 1.20513 24.7552 0.723077 24.2656C0.241026 23.776 0 23.1875 0 22.5V7.5C0 6.8125 0.241026 6.22396 0.723077 5.73438C1.20513 5.24479 1.78462 5 2.46154 5H16C16.3897 5 16.759 5.08854 17.1077 5.26562C17.4564 5.44271 17.7436 5.6875 17.9692 6L23.5077 13.5C23.8359 13.9375 24 14.4375 24 15C24 15.5625 23.8359 16.0625 23.5077 16.5L17.9692 24C17.7436 24.3125 17.4564 24.5573 17.1077 24.7344C16.759 24.9115 16.3897 25 16 25H2.46154Z" fill="#2BB1FF"/>
<path d="M29.2 23C29.312 23 29.424 22.888 29.536 22.664C29.648 22.44 29.704 22.072 29.704 21.56V10.04C29.704 9.528 29.648 9.168 29.536 8.96C29.424 8.736 29.312 8.616 29.2 8.6H38.176C39.424 8.6 40.4 8.744 41.104 9.032C41.808 9.32 42.304 9.736 42.592 10.28C42.88 10.808 43.024 11.432 43.024 12.152C43.024 12.728 42.92 13.216 42.712 13.616C42.52 14 42.272 14.304 41.968 14.528C41.664 14.752 41.36 14.92 41.056 15.032V15.08C42.096 15.32 42.88 15.752 43.408 16.376C43.936 16.984 44.2 17.8 44.2 18.824C44.2 19.512 44.064 20.176 43.792 20.816C43.52 21.456 43.016 21.984 42.28 22.4C41.56 22.8 40.512 23 39.136 23H29.2ZM34.36 20.336H37.96C38.872 20.336 39.52 20.208 39.904 19.952C40.304 19.68 40.504 19.248 40.504 18.656C40.504 18.096 40.288 17.664 39.856 17.36C39.424 17.04 38.712 16.88 37.72 16.88H34.384C33.904 16.88 33.616 16.912 33.52 16.976C33.44 17.04 33.4 17.256 33.4 17.624V19.616C33.4 19.968 33.44 20.176 33.52 20.24C33.616 20.304 33.896 20.336 34.36 20.336ZM34.384 14.432H37.216C37.984 14.432 38.528 14.304 38.848 14.048C39.184 13.776 39.352 13.376 39.352 12.848C39.352 12.32 39.192 11.928 38.872 11.672C38.568 11.416 38.024 11.288 37.24 11.288H34.36C33.88 11.288 33.6 11.32 33.52 11.384C33.44 11.432 33.4 11.64 33.4 12.008V13.712C33.4 14.064 33.44 14.272 33.52 14.336C33.616 14.4 33.904 14.432 34.384 14.432ZM46.1219 23C46.2339 23 46.3459 22.888 46.4579 22.664C46.5699 22.44 46.6259 22.072 46.6259 21.56V7.88C46.6259 7.368 46.5699 7 46.4579 6.776C46.3619 6.552 46.2579 6.44 46.1459 6.44C47.2019 6.44 48.0579 6.392 48.7139 6.296C49.3859 6.184 49.8259 6.072 50.0339 5.96V21.56C50.0339 22.072 50.0819 22.44 50.1779 22.664C50.2899 22.888 50.4019 23 50.5139 23H46.1219ZM57.6228 23.24C56.6948 23.24 55.9028 23.08 55.2467 22.76C54.5908 22.424 54.0948 21.856 53.7588 21.056C53.4228 20.24 53.2548 19.112 53.2548 17.672V13.208C53.2548 12.696 53.1988 12.328 53.0868 12.104C52.9908 11.88 52.8868 11.768 52.7748 11.768H57.1908C57.0788 11.768 56.9588 11.88 56.8308 12.104C56.7188 12.328 56.6628 12.696 56.6628 13.208V18.008C56.6628 19.016 56.8468 19.736 57.2148 20.168C57.5988 20.6 58.0388 20.816 58.5348 20.816C59.2388 20.816 59.7828 20.656 60.1668 20.336C60.5508 20 60.8228 19.568 60.9828 19.04C61.1428 18.496 61.2228 17.928 61.2228 17.336V13.208C61.2228 12.696 61.1668 12.336 61.0548 12.128C60.9588 11.904 60.8548 11.784 60.7428 11.768H64.6308V21.56C64.6308 22.072 64.6788 22.44 64.7748 22.664C64.8868 22.888 64.9988 23 65.1108 23H61.2228V22.064L61.2708 21.584L61.2228 21.536C61.0628 21.776 60.8628 22 60.6228 22.208C60.3828 22.416 60.1108 22.6 59.8068 22.76C59.5028 22.904 59.1668 23.016 58.7988 23.096C58.4308 23.192 58.0388 23.24 57.6228 23.24ZM73.2636 23.24C71.9996 23.24 70.9436 23.112 70.0956 22.856C69.2636 22.584 68.5996 22.2 68.1036 21.704C67.6076 21.192 67.2556 20.576 67.0476 19.856C66.8396 19.136 66.7356 18.32 66.7356 17.408C66.7356 15.6 67.2396 14.168 68.2476 13.112C69.2556 12.056 70.7996 11.528 72.8796 11.528C74.0956 11.528 75.0796 11.696 75.8316 12.032C76.5996 12.368 77.1836 12.816 77.5836 13.376C77.9836 13.936 78.2556 14.56 78.3996 15.248C78.5596 15.92 78.6396 16.6 78.6396 17.288V18.416C78.6396 18.368 78.4156 18.32 77.9676 18.272C77.5356 18.208 76.7996 18.176 75.7596 18.176H70.1916C70.1916 19.056 70.4556 19.72 70.9836 20.168C71.5276 20.6 72.4076 20.816 73.6236 20.816C74.6476 20.816 75.5596 20.696 76.3596 20.456C77.1756 20.2 77.7676 19.96 78.1356 19.736V20.456L78.3756 22.28C78.0716 22.488 77.4876 22.704 76.6236 22.928C75.7596 23.136 74.6396 23.24 73.2636 23.24ZM71.0796 16.112H75.2316C75.2316 15.76 75.1516 15.416 74.9916 15.08C74.8476 14.744 74.6076 14.472 74.2716 14.264C73.9356 14.04 73.4716 13.928 72.8796 13.928C72.2876 13.928 71.8076 14.016 71.4396 14.192C71.0876 14.368 70.8236 14.584 70.6476 14.84C70.4876 15.096 70.4076 15.36 70.4076 15.632C70.4076 15.792 70.4556 15.912 70.5516 15.992C70.6476 16.072 70.8236 16.112 71.0796 16.112Z" fill="#2BB1FF"/>
</svg>
