<svg width="84" height="20" viewBox="0 0 84 20" fill="none" xmlns="http://www.w3.org/2000/svg">
<rect x="0.5" y="0.5" width="83" height="19" fill="#4DD5BC" fill-opacity="0.2"/>
<rect x="0.5" y="0.5" width="83" height="19" stroke="#4DD5BC"/>
<mask id="mask0_19765_3682" style="mask-type:alpha" maskUnits="userSpaceOnUse" x="8" y="4" width="12" height="12">
<rect x="8" y="4" width="12" height="12" fill="#D9D9D9"/>
</mask>
<g mask="url(#mask0_19765_3682)">
<path d="M18.075 10.5H12.5C12.3583 10.5 12.2396 10.4521 12.1437 10.3563C12.0479 10.2604 12 10.1417 12 10C12 9.85833 12.0479 9.73958 12.1437 9.64375C12.2396 9.54792 12.3583 9.5 12.5 9.5H18.075L17.65 9.075C17.55 8.975 17.5021 8.85833 17.5062 8.725C17.5104 8.59167 17.5583 8.475 17.65 8.375C17.75 8.275 17.8687 8.22292 18.0062 8.21875C18.1437 8.21458 18.2625 8.2625 18.3625 8.3625L19.65 9.65C19.75 9.75 19.8 9.86667 19.8 10C19.8 10.1333 19.75 10.25 19.65 10.35L18.3625 11.6375C18.2625 11.7375 18.1437 11.7854 18.0062 11.7812C17.8687 11.7771 17.75 11.725 17.65 11.625C17.5583 11.525 17.5104 11.4083 17.5062 11.275C17.5021 11.1417 17.55 11.025 17.65 10.925L18.075 10.5ZM15.5 8V6.5H10.5V13.5H15.5V12C15.5 11.8583 15.5479 11.7396 15.6437 11.6438C15.7396 11.5479 15.8583 11.5 16 11.5C16.1417 11.5 16.2604 11.5479 16.3562 11.6438C16.4521 11.7396 16.5 11.8583 16.5 12V13.5C16.5 13.775 16.4021 14.0104 16.2062 14.2063C16.0104 14.4021 15.775 14.5 15.5 14.5H10.5C10.225 14.5 9.98958 14.4021 9.79375 14.2063C9.59792 14.0104 9.5 13.775 9.5 13.5V6.5C9.5 6.225 9.59792 5.98958 9.79375 5.79375C9.98958 5.59792 10.225 5.5 10.5 5.5H15.5C15.775 5.5 16.0104 5.59792 16.2062 5.79375C16.4021 5.98958 16.5 6.225 16.5 6.5V8C16.5 8.14167 16.4521 8.26042 16.3562 8.35625C16.2604 8.45208 16.1417 8.5 16 8.5C15.8583 8.5 15.7396 8.45208 15.6437 8.35625C15.5479 8.26042 15.5 8.14167 15.5 8Z" fill="white"/>
</g>
<path d="M26.5 13C26.5467 13 26.5933 12.9533 26.64 12.86C26.6867 12.7667 26.71 12.6133 26.71 12.4V7.6C26.71 7.38667 26.6867 7.23667 26.64 7.15C26.5933 7.05667 26.5467 7.00667 26.5 7H32.34V7.3L32.54 8.46C32.3733 8.38667 32.08 8.31 31.66 8.23C31.24 8.14333 30.7333 8.1 30.14 8.1H28.66C28.46 8.1 28.34 8.11667 28.3 8.15C28.2667 8.17667 28.25 8.26 28.25 8.4V9.14C28.25 9.28667 28.2667 9.37333 28.3 9.4C28.34 9.42667 28.4567 9.44 28.65 9.44H30.09C30.4767 9.44 30.7867 9.42 31.02 9.38C31.26 9.33333 31.4167 9.28667 31.49 9.24C31.4633 9.36667 31.4333 9.51333 31.4 9.68C31.3667 9.84667 31.34 10.0067 31.32 10.16C31.3 10.3133 31.29 10.44 31.29 10.54H28.65C28.4567 10.54 28.34 10.5533 28.3 10.58C28.2667 10.6 28.25 10.6867 28.25 10.84V11.58C28.25 11.7333 28.2667 11.8233 28.3 11.85C28.3333 11.8767 28.45 11.89 28.65 11.89H31.35C31.7367 11.89 32.0467 11.8467 32.28 11.76C32.52 11.6667 32.6767 11.5767 32.75 11.49L32.55 12.69V13H26.5ZM32.8731 13C32.9331 13 33.0331 12.9533 33.1731 12.86C33.3131 12.7667 33.4731 12.6167 33.6531 12.41C33.7798 12.2567 33.9298 12.0767 34.1031 11.87C34.2765 11.6567 34.4498 11.44 34.6231 11.22C34.8031 11 34.9565 10.81 35.0831 10.65C34.9765 10.53 34.8565 10.3933 34.7231 10.24C34.5898 10.0867 34.4531 9.93 34.3131 9.77C34.1798 9.61 34.0465 9.46 33.9131 9.32C33.7865 9.17333 33.6765 9.04667 33.5831 8.94C33.3831 8.71333 33.2231 8.55333 33.1031 8.46C32.9831 8.36667 32.9065 8.32 32.8731 8.32H35.0331C34.9865 8.32667 34.9698 8.37667 34.9831 8.47C35.0031 8.56333 35.0898 8.72 35.2431 8.94C35.3098 9.03333 35.3865 9.14 35.4731 9.26C35.5598 9.38 35.6465 9.5 35.7331 9.62C35.8198 9.74 35.8931 9.84333 35.9531 9.93H35.9731C36.0265 9.85 36.0898 9.75333 36.1631 9.64C36.2431 9.52667 36.3265 9.40667 36.4131 9.28C36.4998 9.15333 36.5798 9.03333 36.6531 8.92C36.7931 8.7 36.8698 8.54667 36.8831 8.46C36.9031 8.36667 36.8931 8.32 36.8531 8.32H39.0431C38.9831 8.32 38.8865 8.36667 38.7531 8.46C38.6198 8.54667 38.4598 8.69667 38.2731 8.91C38.1465 9.05667 37.9898 9.23667 37.8031 9.45C37.6231 9.65667 37.4431 9.86667 37.2631 10.08C37.0831 10.2933 36.9231 10.4833 36.7831 10.65C36.9565 10.8433 37.1298 11.0367 37.3031 11.23C37.4765 11.4167 37.6465 11.6067 37.8131 11.8C37.9865 11.9933 38.1598 12.1867 38.3331 12.38C38.5331 12.6067 38.6931 12.7667 38.8131 12.86C38.9398 12.9533 39.0198 13 39.0531 13H36.8931C36.9398 13 36.9565 12.9533 36.9431 12.86C36.9298 12.7667 36.8465 12.6067 36.6931 12.38C36.6265 12.2733 36.5465 12.1567 36.4531 12.03C36.3598 11.9033 36.2665 11.7767 36.1731 11.65C36.0798 11.5233 35.9998 11.4167 35.9331 11.33H35.9131C35.8598 11.4167 35.7931 11.5233 35.7131 11.65C35.6398 11.7767 35.5598 11.9067 35.4731 12.04C35.3931 12.1733 35.3165 12.2933 35.2431 12.4C35.0965 12.62 35.0131 12.7767 34.9931 12.87C34.9731 12.9567 34.9865 13 35.0331 13H32.8731ZM39.4088 13C39.4554 13 39.5021 12.9533 39.5488 12.86C39.5954 12.7667 39.6188 12.6133 39.6188 12.4V8.92C39.6188 8.70667 39.5954 8.55333 39.5488 8.46C39.5088 8.36667 39.4654 8.32 39.4188 8.32H41.0388V12.4C41.0388 12.6133 41.0588 12.7667 41.0988 12.86C41.1454 12.9533 41.1921 13 41.2388 13H39.4088ZM40.2188 7.56C39.9721 7.56 39.7754 7.49333 39.6287 7.36C39.4821 7.22667 39.4088 7.04333 39.4088 6.81C39.4088 6.57667 39.4788 6.39333 39.6188 6.26C39.7654 6.12667 39.9654 6.06 40.2188 6.06C40.4721 6.06 40.6688 6.12667 40.8088 6.26C40.9554 6.39333 41.0288 6.57667 41.0288 6.81C41.0288 7.04333 40.9554 7.22667 40.8088 7.36C40.6688 7.49333 40.4721 7.56 40.2188 7.56ZM44.1131 13.1C43.6531 13.1 43.3198 13.0033 43.1131 12.81C42.9065 12.61 42.8031 12.2867 42.8031 11.84V9.32H41.9031V8.32C42.2098 8.32 42.4498 8.28333 42.6231 8.21C42.7965 8.13 42.9198 7.99333 42.9931 7.8C43.0665 7.60667 43.1031 7.33667 43.1031 6.99H44.2231V8.32H45.9331C45.8865 8.45333 45.8398 8.62 45.7931 8.82C45.7531 9.01333 45.7331 9.18 45.7331 9.32H44.2231V11.29C44.2231 11.5967 44.2465 11.8067 44.2931 11.92C44.3398 12.0333 44.4498 12.09 44.6231 12.09C44.7365 12.09 44.8598 12.05 44.9931 11.97C45.1331 11.89 45.2665 11.7933 45.3931 11.68C45.5265 11.56 45.6365 11.4467 45.7231 11.34V11.65L45.8231 12.62C45.7431 12.6867 45.6231 12.76 45.4631 12.84C45.3031 12.9133 45.1065 12.9733 44.8731 13.02C44.6465 13.0733 44.3931 13.1 44.1131 13.1ZM51.2816 15.44C50.895 15.44 50.5383 15.4133 50.2116 15.36C49.8916 15.3067 49.6116 15.24 49.3716 15.16C49.1383 15.0867 48.9583 15.0133 48.8316 14.94L49.0316 13.44V13.15C49.125 13.33 49.2716 13.52 49.4716 13.72C49.6716 13.92 49.9216 14.09 50.2216 14.23C50.5216 14.37 50.8616 14.44 51.2416 14.44C51.4883 14.44 51.695 14.3867 51.8616 14.28C52.0283 14.18 52.155 14.0233 52.2416 13.81C52.3283 13.5967 52.3716 13.3333 52.3716 13.02V12.86L52.3916 12.68L52.3716 12.66C52.2783 12.76 52.1516 12.8433 51.9916 12.91C51.8383 12.97 51.6683 13.0167 51.4816 13.05C51.3016 13.0833 51.1216 13.1 50.9416 13.1C50.4016 13.1 49.9683 12.9933 49.6416 12.78C49.3216 12.5667 49.0883 12.2767 48.9416 11.91C48.8016 11.5433 48.7316 11.13 48.7316 10.67C48.7316 10.2033 48.8016 9.78667 48.9416 9.42C49.0816 9.05333 49.3116 8.76333 49.6316 8.55C49.9583 8.33 50.395 8.22 50.9416 8.22C51.1283 8.22 51.3116 8.23333 51.4916 8.26C51.6716 8.28667 51.8383 8.32667 51.9916 8.38C52.145 8.42667 52.2716 8.49333 52.3716 8.58L52.3916 8.57L52.3716 8.38V8.32H53.9916C53.945 8.32667 53.8983 8.37667 53.8516 8.47C53.8116 8.56333 53.7916 8.72 53.7916 8.94V12.77C53.7916 13.7367 53.585 14.4233 53.1716 14.83C52.765 15.2367 52.135 15.44 51.2816 15.44ZM51.2116 12.09C51.445 12.09 51.6483 12.05 51.8216 11.97C51.995 11.89 52.1283 11.7467 52.2216 11.54C52.3216 11.3333 52.3716 11.0433 52.3716 10.67C52.3716 10.3033 52.3216 10.0167 52.2216 9.81C52.1283 9.59667 51.995 9.44667 51.8216 9.36C51.6483 9.26667 51.445 9.22 51.2116 9.22C50.9916 9.22 50.8016 9.26667 50.6416 9.36C50.4816 9.45333 50.3583 9.60667 50.2716 9.82C50.185 10.0333 50.1416 10.32 50.1416 10.68C50.1416 11.0333 50.1816 11.3133 50.2616 11.52C50.3483 11.7267 50.4716 11.8733 50.6316 11.96C50.7916 12.0467 50.985 12.09 51.2116 12.09ZM56.8661 13.1C56.2661 13.1 55.7861 12.9833 55.4261 12.75C55.0728 12.51 54.8961 12.1267 54.8961 11.6C54.8961 11.2333 54.9894 10.9367 55.1761 10.71C55.3628 10.4833 55.6161 10.3167 55.9361 10.21C56.2628 10.0967 56.6328 10.04 57.0461 10.04C57.3528 10.04 57.6128 10.0667 57.8261 10.12C58.0461 10.1733 58.2228 10.23 58.3561 10.29C58.4894 10.35 58.5761 10.3933 58.6161 10.42C58.6161 10.14 58.5861 9.91333 58.5261 9.74C58.4661 9.56 58.3561 9.43 58.1961 9.35C58.0428 9.26333 57.8261 9.22 57.5461 9.22C57.1394 9.22 56.7794 9.26 56.4661 9.34C56.1528 9.42 55.8961 9.51333 55.6961 9.62C55.5028 9.72667 55.3694 9.81667 55.2961 9.89V9.59L55.1961 8.61C55.2428 8.58333 55.3661 8.54 55.5661 8.48C55.7661 8.42 56.0394 8.36333 56.3861 8.31C56.7328 8.25 57.1461 8.22 57.6261 8.22C58.2861 8.22 58.7894 8.31667 59.1361 8.51C59.4828 8.69667 59.7194 8.96667 59.8461 9.32C59.9794 9.67333 60.0461 10.1 60.0461 10.6V12.4C60.0461 12.5867 60.0661 12.7233 60.1061 12.81C60.1528 12.89 60.1994 12.9533 60.2461 13H58.6261V12.79L58.6461 12.6L58.6261 12.58C58.5728 12.64 58.4961 12.7 58.3961 12.76C58.2961 12.82 58.1728 12.8767 58.0261 12.93C57.8794 12.9767 57.7094 13.0167 57.5161 13.05C57.3228 13.0833 57.1061 13.1 56.8661 13.1ZM57.3361 12.09C57.6161 12.09 57.8494 12.07 58.0361 12.03C58.2294 11.9833 58.3761 11.9233 58.4761 11.85C58.5761 11.77 58.6261 11.6767 58.6261 11.57C58.6261 11.4167 58.5094 11.29 58.2761 11.19C58.0494 11.09 57.7394 11.04 57.3461 11.04C56.9661 11.04 56.6961 11.0933 56.5361 11.2C56.3828 11.3067 56.3061 11.44 56.3061 11.6C56.3061 11.8 56.3961 11.9333 56.5761 12C56.7561 12.06 57.0094 12.09 57.3361 12.09ZM61.0689 13C61.1156 13 61.1589 12.9533 61.1989 12.86C61.2456 12.7667 61.2689 12.6133 61.2689 12.4V9.02C61.2689 8.80667 61.2456 8.65667 61.1989 8.57C61.1589 8.47667 61.1156 8.42667 61.0689 8.42C61.3622 8.42 61.6622 8.4 61.9689 8.36C62.2756 8.31333 62.5156 8.26667 62.6889 8.22V8.83L62.6689 8.96L62.6889 8.98C62.7089 8.93333 62.7722 8.85 62.8789 8.73C62.9856 8.61 63.1389 8.49667 63.3389 8.39C63.5389 8.27667 63.7856 8.22 64.0789 8.22C64.6989 8.22 65.1722 8.39667 65.4989 8.75C65.8322 9.10333 65.9989 9.65667 65.9989 10.41V12.4C65.9989 12.6133 66.0189 12.7667 66.0589 12.86C66.1056 12.9533 66.1522 13 66.1989 13H64.3789C64.4256 13 64.4689 12.9533 64.5089 12.86C64.5556 12.7667 64.5789 12.6133 64.5789 12.4V10.44C64.5789 10.1267 64.5456 9.88333 64.4789 9.71C64.4122 9.53 64.3189 9.40333 64.1989 9.33C64.0856 9.25667 63.9522 9.22 63.7989 9.22C63.6122 9.22 63.4322 9.26667 63.2589 9.36C63.0922 9.44667 62.9556 9.58667 62.8489 9.78C62.7422 9.96667 62.6889 10.2167 62.6889 10.53V12.4C62.6889 12.6133 62.7089 12.7667 62.7489 12.86C62.7956 12.9533 62.8422 13 62.8889 13H61.0689ZM67.6789 13C67.7256 12.9933 67.7689 12.9433 67.8089 12.85C67.8556 12.7567 67.8789 12.6067 67.8789 12.4V10.53C67.8789 10.2633 67.8522 10.0333 67.7989 9.84C67.7522 9.64 67.6722 9.48667 67.5589 9.38C67.4456 9.27333 67.2922 9.22 67.0989 9.22C66.7722 9.22 66.5056 9.33667 66.2989 9.57C66.0989 9.80333 65.9989 10.1567 65.9989 10.63H65.2689C65.2689 10.31 65.3189 10.0067 65.4189 9.72C65.5189 9.42667 65.6622 9.17 65.8489 8.95C66.0356 8.72333 66.2589 8.54667 66.5189 8.42C66.7789 8.28667 67.0656 8.22 67.3789 8.22C67.7789 8.22 68.1222 8.29333 68.4089 8.44C68.6956 8.58 68.9156 8.81667 69.0689 9.15C69.2222 9.48333 69.2989 9.93667 69.2989 10.51V12.4C69.2989 12.6067 69.3189 12.7567 69.3589 12.85C69.4056 12.9433 69.4522 12.9933 69.4989 13H67.6789ZM72.897 13.1C72.3703 13.1 71.9303 13.0467 71.577 12.94C71.2303 12.8267 70.9536 12.6667 70.747 12.46C70.5403 12.2467 70.3936 11.99 70.307 11.69C70.2203 11.39 70.177 11.05 70.177 10.67C70.177 9.91667 70.387 9.32 70.807 8.88C71.227 8.44 71.8703 8.22 72.737 8.22C73.2436 8.22 73.6536 8.29 73.967 8.43C74.287 8.57 74.5303 8.75667 74.697 8.99C74.8636 9.22333 74.977 9.48333 75.037 9.77C75.1036 10.05 75.137 10.3333 75.137 10.62V11.09C75.137 11.07 75.0436 11.05 74.857 11.03C74.677 11.0033 74.3703 10.99 73.937 10.99H71.617C71.617 11.3567 71.727 11.6333 71.947 11.82C72.1736 12 72.5403 12.09 73.047 12.09C73.4736 12.09 73.8536 12.04 74.187 11.94C74.527 11.8333 74.7736 11.7333 74.927 11.64V11.94L75.027 12.7C74.9003 12.7867 74.657 12.8767 74.297 12.97C73.937 13.0567 73.4703 13.1 72.897 13.1ZM71.987 10.13H73.717C73.717 9.98333 73.6836 9.84 73.617 9.7C73.557 9.56 73.457 9.44667 73.317 9.36C73.177 9.26667 72.9836 9.22 72.737 9.22C72.4903 9.22 72.2903 9.25667 72.137 9.33C71.9903 9.40333 71.8803 9.49333 71.807 9.6C71.7403 9.70667 71.707 9.81667 71.707 9.93C71.707 9.99667 71.727 10.0467 71.767 10.08C71.807 10.1133 71.8803 10.13 71.987 10.13Z" fill="white"/>
</svg>
