<svg width="115" height="30" viewBox="0 0 115 30" fill="none" xmlns="http://www.w3.org/2000/svg">
<path d="M2.46154 25C1.78462 25 1.20513 24.7552 0.723077 24.2656C0.241026 23.776 0 23.1875 0 22.5V7.5C0 6.8125 0.241026 6.22396 0.723077 5.73438C1.20513 5.24479 1.78462 5 2.46154 5H16C16.3897 5 16.759 5.08854 17.1077 5.26562C17.4564 5.44271 17.7436 5.6875 17.9692 6L23.5077 13.5C23.8359 13.9375 24 14.4375 24 15C24 15.5625 23.8359 16.0625 23.5077 16.5L17.9692 24C17.7436 24.3125 17.4564 24.5573 17.1077 24.7344C16.759 24.9115 16.3897 25 16 25H2.46154Z" fill="#F58E39"/>
<path d="M36.76 23.24C34.008 23.24 32.016 22.584 30.784 21.272C29.568 19.944 28.96 18.096 28.96 15.728C28.96 14.208 29.224 12.904 29.752 11.816C30.296 10.712 31.136 9.864 32.272 9.272C33.424 8.664 34.92 8.36 36.76 8.36H37.504C39.312 8.36 40.776 8.656 41.896 9.248C43.032 9.84 43.864 10.688 44.392 11.792C44.92 12.896 45.184 14.208 45.184 15.728C45.184 18.096 44.576 19.944 43.36 21.272C42.144 22.584 40.192 23.24 37.504 23.24H36.76ZM37 20.576H37.264C38.24 20.576 39.04 20.416 39.664 20.096C40.304 19.776 40.776 19.264 41.08 18.56C41.384 17.84 41.536 16.896 41.536 15.728C41.536 14.592 41.376 13.68 41.056 12.992C40.752 12.288 40.28 11.784 39.64 11.48C39.016 11.16 38.224 11 37.264 11H37C36.008 11 35.184 11.168 34.528 11.504C33.872 11.824 33.384 12.328 33.064 13.016C32.76 13.704 32.608 14.608 32.608 15.728C32.608 16.896 32.768 17.84 33.088 18.56C33.424 19.264 33.912 19.776 34.552 20.096C35.208 20.416 36.024 20.576 37 20.576ZM47.1966 23C47.3086 23 47.4126 22.888 47.5086 22.664C47.6206 22.44 47.6766 22.072 47.6766 21.56V13.448C47.6766 12.936 47.6206 12.576 47.5086 12.368C47.4126 12.144 47.3086 12.024 47.1966 12.008C47.9006 12.008 48.6206 11.96 49.3566 11.864C50.0926 11.752 50.6686 11.64 51.0846 11.528V12.488L51.0366 12.896L51.0846 12.944C51.1966 12.768 51.3726 12.576 51.6126 12.368C51.8686 12.144 52.1886 11.952 52.5726 11.792C52.9726 11.616 53.4366 11.528 53.9646 11.528C54.7486 11.528 55.4446 11.64 56.0526 11.864C56.6606 12.072 57.0926 12.288 57.3486 12.512L56.6286 15.728V16.448C56.3886 16.112 56.0606 15.768 55.6446 15.416C55.2446 15.064 54.7966 14.768 54.3006 14.528C53.8206 14.288 53.3246 14.168 52.8126 14.168C52.2366 14.168 51.8046 14.376 51.5166 14.792C51.2286 15.208 51.0846 15.864 51.0846 16.76V21.56C51.0846 22.072 51.1326 22.44 51.2286 22.664C51.3406 22.888 51.4526 23 51.5646 23H47.1966ZM62.7974 23.24C61.3574 23.24 60.2054 22.96 59.3414 22.4C58.4934 21.824 58.0694 20.904 58.0694 19.64C58.0694 18.76 58.2934 18.048 58.7414 17.504C59.1894 16.96 59.7974 16.56 60.5654 16.304C61.3494 16.032 62.2374 15.896 63.2294 15.896C63.9654 15.896 64.5894 15.96 65.1014 16.088C65.6294 16.216 66.0534 16.352 66.3734 16.496C66.6934 16.64 66.9014 16.744 66.9974 16.808C66.9974 16.136 66.9254 15.592 66.7814 15.176C66.6374 14.744 66.3734 14.432 65.9894 14.24C65.6214 14.032 65.1014 13.928 64.4294 13.928C63.4534 13.928 62.5894 14.024 61.8374 14.216C61.0854 14.408 60.4694 14.632 59.9894 14.888C59.5254 15.144 59.2054 15.36 59.0294 15.536V14.816L58.7894 12.464C58.9014 12.4 59.1974 12.296 59.6774 12.152C60.1574 12.008 60.8134 11.872 61.6454 11.744C62.4774 11.6 63.4694 11.528 64.6214 11.528C66.2054 11.528 67.4134 11.76 68.2454 12.224C69.0774 12.672 69.6454 13.32 69.9494 14.168C70.2694 15.016 70.4294 16.04 70.4294 17.24V21.56C70.4294 22.008 70.4774 22.336 70.5734 22.544C70.6854 22.736 70.7974 22.888 70.9094 23H67.0214V22.496L67.0694 22.04L67.0214 21.992C66.8934 22.136 66.7094 22.28 66.4694 22.424C66.2294 22.568 65.9334 22.704 65.5814 22.832C65.2294 22.944 64.8214 23.04 64.3574 23.12C63.8934 23.2 63.3734 23.24 62.7974 23.24ZM63.9254 20.816C64.5974 20.816 65.1574 20.768 65.6054 20.672C66.0694 20.56 66.4214 20.416 66.6614 20.24C66.9014 20.048 67.0214 19.824 67.0214 19.568C67.0214 19.2 66.7414 18.896 66.1814 18.656C65.6374 18.416 64.8934 18.296 63.9494 18.296C63.0374 18.296 62.3894 18.424 62.0054 18.68C61.6374 18.936 61.4534 19.256 61.4534 19.64C61.4534 20.12 61.6694 20.44 62.1014 20.6C62.5334 20.744 63.1414 20.816 63.9254 20.816ZM72.8841 23C72.9961 23 73.1001 22.888 73.1961 22.664C73.3081 22.44 73.3641 22.072 73.3641 21.56V13.448C73.3641 12.936 73.3081 12.576 73.1961 12.368C73.1001 12.144 72.9961 12.024 72.8841 12.008C73.5881 12.008 74.3081 11.96 75.0441 11.864C75.7801 11.752 76.3561 11.64 76.7721 11.528V12.992L76.7241 13.304L76.7721 13.352C76.8201 13.24 76.9721 13.04 77.2281 12.752C77.4841 12.464 77.8521 12.192 78.3321 11.936C78.8121 11.664 79.4041 11.528 80.1081 11.528C81.5961 11.528 82.7321 11.952 83.5161 12.8C84.3161 13.648 84.7161 14.976 84.7161 16.784V21.56C84.7161 22.072 84.7641 22.44 84.8601 22.664C84.9721 22.888 85.0841 23 85.1961 23H80.8281C80.9401 23 81.0441 22.888 81.1401 22.664C81.2521 22.44 81.3081 22.072 81.3081 21.56V16.856C81.3081 16.104 81.2281 15.52 81.0681 15.104C80.9081 14.672 80.6841 14.368 80.3961 14.192C80.1241 14.016 79.8041 13.928 79.4361 13.928C78.9881 13.928 78.5561 14.04 78.1401 14.264C77.7401 14.472 77.4121 14.808 77.1561 15.272C76.9001 15.72 76.7721 16.32 76.7721 17.072V21.56C76.7721 22.072 76.8201 22.44 76.9161 22.664C77.0281 22.888 77.1401 23 77.2521 23H72.8841ZM92.9416 28.856C92.0136 28.856 91.1576 28.792 90.3736 28.664C89.6056 28.536 88.9336 28.376 88.3576 28.184C87.7976 28.008 87.3656 27.832 87.0616 27.656L87.5416 24.056V23.36C87.7656 23.792 88.1176 24.248 88.5976 24.728C89.0776 25.208 89.6776 25.616 90.3976 25.952C91.1176 26.288 91.9336 26.456 92.8456 26.456C93.4376 26.456 93.9336 26.328 94.3336 26.072C94.7336 25.832 95.0376 25.456 95.2456 24.944C95.4536 24.432 95.5576 23.8 95.5576 23.048V22.664L95.6056 22.232L95.5576 22.184C95.3336 22.424 95.0296 22.624 94.6456 22.784C94.2776 22.928 93.8696 23.04 93.4216 23.12C92.9896 23.2 92.5576 23.24 92.1256 23.24C90.8296 23.24 89.7896 22.984 89.0056 22.472C88.2376 21.96 87.6776 21.264 87.3256 20.384C86.9896 19.504 86.8216 18.512 86.8216 17.408C86.8216 16.288 86.9896 15.288 87.3256 14.408C87.6616 13.528 88.2136 12.832 88.9816 12.32C89.7656 11.792 90.8136 11.528 92.1256 11.528C92.5736 11.528 93.0136 11.56 93.4456 11.624C93.8776 11.688 94.2776 11.784 94.6456 11.912C95.0136 12.024 95.3176 12.184 95.5576 12.392L95.6056 12.368L95.5576 11.912V11.768H99.4456C99.3336 11.784 99.2216 11.904 99.1096 12.128C99.0136 12.352 98.9656 12.728 98.9656 13.256V22.448C98.9656 24.768 98.4696 26.416 97.4776 27.392C96.5016 28.368 94.9896 28.856 92.9416 28.856ZM92.7736 20.816C93.3336 20.816 93.8216 20.72 94.2376 20.528C94.6536 20.336 94.9736 19.992 95.1976 19.496C95.4376 19 95.5576 18.304 95.5576 17.408C95.5576 16.528 95.4376 15.84 95.1976 15.344C94.9736 14.832 94.6536 14.472 94.2376 14.264C93.8216 14.04 93.3336 13.928 92.7736 13.928C92.2456 13.928 91.7896 14.04 91.4056 14.264C91.0216 14.488 90.7256 14.856 90.5176 15.368C90.3096 15.88 90.2056 16.568 90.2056 17.432C90.2056 18.28 90.3016 18.952 90.4936 19.448C90.7016 19.944 90.9976 20.296 91.3816 20.504C91.7656 20.712 92.2296 20.816 92.7736 20.816ZM107.904 23.24C106.64 23.24 105.584 23.112 104.736 22.856C103.904 22.584 103.24 22.2 102.744 21.704C102.248 21.192 101.896 20.576 101.688 19.856C101.48 19.136 101.376 18.32 101.376 17.408C101.376 15.6 101.88 14.168 102.888 13.112C103.896 12.056 105.44 11.528 107.52 11.528C108.736 11.528 109.72 11.696 110.472 12.032C111.24 12.368 111.824 12.816 112.224 13.376C112.624 13.936 112.896 14.56 113.04 15.248C113.2 15.92 113.28 16.6 113.28 17.288V18.416C113.28 18.368 113.056 18.32 112.608 18.272C112.176 18.208 111.44 18.176 110.4 18.176H104.832C104.832 19.056 105.096 19.72 105.624 20.168C106.168 20.6 107.048 20.816 108.264 20.816C109.288 20.816 110.2 20.696 111 20.456C111.816 20.2 112.408 19.96 112.776 19.736V20.456L113.016 22.28C112.712 22.488 112.128 22.704 111.264 22.928C110.4 23.136 109.28 23.24 107.904 23.24ZM105.72 16.112H109.872C109.872 15.76 109.792 15.416 109.632 15.08C109.488 14.744 109.248 14.472 108.912 14.264C108.576 14.04 108.112 13.928 107.52 13.928C106.928 13.928 106.448 14.016 106.08 14.192C105.728 14.368 105.464 14.584 105.288 14.84C105.128 15.096 105.048 15.36 105.048 15.632C105.048 15.792 105.096 15.912 105.192 15.992C105.288 16.072 105.464 16.112 105.72 16.112Z" fill="#F58E39"/>
</svg>
