<svg width="24" height="24" viewBox="0 0 24 24" fill="none" xmlns="http://www.w3.org/2000/svg">
<mask id="mask0_19175_3623" style="mask-type:alpha" maskUnits="userSpaceOnUse" x="-1" y="0" width="25" height="24">
<rect x="-0.114258" width="24" height="24" fill="#303131"/>
</mask>
<g mask="url(#mask0_19175_3623)">
<path d="M11.8857 15C12.7191 15 13.4274 14.7083 14.0107 14.125C14.5941 13.5417 14.8857 12.8333 14.8857 12C14.8857 11.1667 14.5941 10.4583 14.0107 9.875C13.4274 9.29167 12.7191 9 11.8857 9C11.0524 9 10.3441 9.29167 9.76074 9.875C9.17741 10.4583 8.88574 11.1667 8.88574 12C8.88574 12.8333 9.17741 13.5417 9.76074 14.125C10.3441 14.7083 11.0524 15 11.8857 15ZM11.8857 22C10.5024 22 9.20241 21.7375 7.98574 21.2125C6.76908 20.6875 5.71074 19.975 4.81074 19.075C3.91074 18.175 3.19824 17.1167 2.67324 15.9C2.14824 14.6833 1.88574 13.3833 1.88574 12C1.88574 10.6167 2.14824 9.31667 2.67324 8.1C3.19824 6.88333 3.91074 5.825 4.81074 4.925C5.71074 4.025 6.76908 3.3125 7.98574 2.7875C9.20241 2.2625 10.5024 2 11.8857 2C13.2691 2 14.5691 2.2625 15.7857 2.7875C17.0024 3.3125 18.0607 4.025 18.9607 4.925C19.8607 5.825 20.5732 6.88333 21.0982 8.1C21.6232 9.31667 21.8857 10.6167 21.8857 12C21.8857 13.3833 21.6232 14.6833 21.0982 15.9C20.5732 17.1167 19.8607 18.175 18.9607 19.075C18.0607 19.975 17.0024 20.6875 15.7857 21.2125C14.5691 21.7375 13.2691 22 11.8857 22ZM11.8857 20C14.1191 20 16.0107 19.225 17.5607 17.675C19.1107 16.125 19.8857 14.2333 19.8857 12C19.8857 9.76667 19.1107 7.875 17.5607 6.325C16.0107 4.775 14.1191 4 11.8857 4C9.65241 4 7.76074 4.775 6.21074 6.325C4.66074 7.875 3.88574 9.76667 3.88574 12C3.88574 14.2333 4.66074 16.125 6.21074 17.675C7.76074 19.225 9.65241 20 11.8857 20Z" fill="#303131"/>
</g>
</svg>
